<?xml version="1.0" encoding="utf-8"?>

<!DOCTYPE svg PUBLIC "-//W3C//DTD SVG 1.1//EN" "http://www.w3.org/Graphics/SVG/1.1/DTD/svg11.dtd">
<svg version="1.1" id="Layer_1" xmlns="http://www.w3.org/2000/svg" xmlns:xlink="http://www.w3.org/1999/xlink" x="0px" y="0px"
	 viewBox="0 0 2428.744 1671.629" enable-background="new 0 0 2428.744 1671.629" xml:space="preserve">
<g>
	<g>
		<g>
			<g>
				<path fill="#E32118" d="M331.721,609.485c3.139-6.364,7.324-9.067,9.067-16.042c3.225-13.165,11.421-18.221,15.693-31.037
					c7.672-7.673,9.94-14.036,19.181-19.181c3.923-2.179,7.235-2.528,9.765-6.278c2.005-2.964,2.178-5.579,4.882-8.021l0,0
					l0.348,1.047c3.836-5.842,4.796-10.724,10.462-14.647c1.309-0.871,2.965-0.348,3.836-1.744c3.401-5.319,3.139-9.59,4.883-15.693
					c1.657-5.841,4.882-8.893,4.882-14.996c0-2.44-2.441-3.487-2.441-5.928c0-2.267,2.441-2.964,2.441-5.231
					c0-1.744-2.179-1.569-3.836-2.092c1.309-2.355,1.744-4.098,1.744-6.889v-7.497c0-6.626-5.928-9.328-5.928-15.954
					c0-5.493,6.017-6.8,11.16-8.718c3.881-1.421,6.872-2.432,9.937-3.847H61.172c-1.585,4.936-2.979,10.246-4.255,16.751
					c-0.785,0.871-1.308,1.655-2.441,2.092c1.57,1.744,2.79,2.877,2.79,5.231c0,5.317-5.231,7.235-5.231,12.555
					c0,3.836,3.487,5.492,3.487,9.328v7.149c0,2.703,1.744,4.098,1.744,6.801v7.411l1.395-0.348
					c0.871,11.246,5.143,16.999,10.462,26.852c3.051,5.755-1.221,11.509,2.79,16.74c2.005,2.615,5.057,1.743,8.37,1.743
					c-1.394,3.402-2.44,5.668-2.44,9.417c0,6.54,6.363,10.811,12.903,10.811c1.655,0,2.528-1.047,4.185-1.047
					c6.538,0,8.63,5.58,14.298,8.719c9.241,5.056,14.472,8.283,24.761,10.811c1.655-3.4,2.615-6.975,6.277-6.975
					c5.754,0,8.893,2.268,14.298,4.186c9.502,3.401,15.344,4.447,24.761,8.02c8.543,3.226,12.815,8.37,21.97,8.37
					c3.399,0,3.574-4.271,6.277-6.278c1.221,1.222,2.528,1.745,4.271,1.745h7.149c4.359,0,6.889-1.395,11.247-1.395
					c2.616,0,3.139,2.79,5.232,4.185c8.107,5.494,13.164,10.811,23.016,10.811c3.051,0,2.876-5.231,5.928-5.231
					c4.62,0,6.801,2.354,11.159,3.836c10.637,3.75,16.914,5.928,26.504,11.857c6.887,4.273,8.979,11.857,17.088,11.857
					C326.316,622.736,328.583,615.85,331.721,609.485z"/>
				<path fill="#FFFFFF" d="M433.552,423.609c4.185-2.616,3.401-7.586,7.324-10.463c6.277-4.708,10.811-9.155,10.811-17.001
					c0-0.609-0.349-0.872-0.349-1.482c-1.046-0.174-1.83-0.437-2.79-0.698c1.046-2.529,3.487-3.487,3.487-6.277
					c0-0.786-1.395-0.611-1.395-1.395c0-5.928,4.534-8.632,4.534-14.56c0-0.872,0.262-1.307,0.349-2.179
					c1.483,0.175,2.44,0.698,3.487,1.744c4.184-2.441,2.963-7.236,5.231-11.509c2.355-4.447,6.974-6.016,6.974-11.159
					c3.401-0.262,7.672-0.785,7.672-4.185c0-2.18-1.046-3.401-1.046-5.58c0-3.836,3.139-6.365,6.974-6.974
					c0-15.432,11.334-22.232,12.555-37.664l0.349-4.185c9.067-9.066,13.514-14.386,20.576-24.76
					c9.622-14.028,17.191-22.474,24.957-34.547H250.203c-0.366,3.212-0.818,6.397-1.132,10.484v11.595
					c0,8.981-2.355,14.735-7.324,22.232c-8.195,1.307-12.38,4.969-17.785,11.16c-4.883,5.579-11.509,7.672-11.509,14.995
					c0,2.006,1.046,3.052,1.046,5.057c0,2.528-0.437,4.01-1.046,6.451c4.969,2.441,8.282,3.4,12.206,7.324v8.456
					c0,5.231-2.964,7.672-4.882,12.468c-5.319,12.815-11.857,24.761-25.807,24.761c-4.621,0-3.401-8.719-8.021-8.719
					c-6.625,0-10.113,3.836-16.739,3.836c-5.493,0-8.457-2.093-13.949-2.093c-2.964,0-4.708,0.698-7.672,0.698
					c-3.75,0-5.319-3.138-9.067-3.138c-2.18,0-2.703,2.79-4.883,2.79c-6.626,0-10.985-1.918-15.693-6.626
					c-8.806,5.231-15.519,4.794-24.411,9.765c-6.365,3.574-3.226,12.031-8.718,16.738c-2.18,1.83-4.448,1.656-6.278,3.836
					c-4.708,5.579-4.185,10.636-6.974,17.437c-4.314,10.507-7.643,17.932-10.393,26.493h366.625
					C429.62,425.894,431.471,424.909,433.552,423.609z"/>
				<path fill="#3E9A00" d="M550.029,219.248c6.191-11.508,8.981-18.92,17.089-29.293c2.44-3.227,5.579-3.836,7.672-7.324
					c2.529-4.273,2.355-7.672,3.487-12.555c2.093-8.893,3.487-14.212,3.487-23.365c0-8.544-2.441-13.339-2.441-21.884v-11.334
					c0-4.359,1.047-7.847-1.744-11.072c-2.79-3.226-7.324-1.221-10.113-4.533c-2.005-2.441-0.435-5.231-1.046-8.37
					c-0.698-3.662-6.974-2.79-6.974-6.54v-7.149c0-5.143-1.83-11.072-6.975-11.072c-2.178,0-3.399,1.395-5.579,1.395
					c-3.923,0-4.708-4.796-5.232-8.719c-4.445,0-8.02-0.698-10.81-4.185l-12.904,5.929c-1.569-0.611-2.528-1.395-3.487-2.791
					c-1.395,2.791-2.353,3.923-4.185,6.278c-1.831,0.435-3.314,0.697-5.231,0.697c-3.662,0-5.755-1.046-9.417-1.046
					c-6.712,0-10.025,4.534-16.739,4.534c-7.149,0-10.985-3.488-18.134-3.488c-5.58,0-7.672,5.58-13.252,5.58
					s-6.626-7.672-12.206-7.672c-10.025,0-15.43,3.836-25.457,3.836c-4.969,0-6.189-6.278-11.159-6.278
					c-8.981,0-13.69,3.487-22.669,3.487c-4.097,0-8.02-2.878-8.02-6.974c0-4.185,2.528-6.103,3.836-10.113
					c-5.057-2.529-7.76-4.882-11.16-9.416c-12.555,2.092-22.058,0.435-31.037,9.416c-7.063,7.061-4.97,14.821-9.416,23.714
					c-5.057,10.113-11.683,13.862-15.344,24.411c-6.975,19.79-20.49,25.545-33.828,41.848c-3.924,4.883-4.533,8.893-8.021,14.299
					c-4.795,7.409-11.857,10.373-11.857,19.092v7.934c0,10.811-1.394,16.914-1.394,27.725c0,6.451,1.046,10.113,1.046,16.565
					c0,3.847-0.267,6.894-0.612,9.917h293.049C545.477,227.276,547.719,223.521,550.029,219.248z"/>
			</g>
			<polygon fill="#3E9A00" points="390.309,528.926 390.309,528.926 390.309,528.926 			"/>
			<path fill="#0073CE" d="M233.806,277.597c-3.635,1.935-6.509,4.789-9.844,8.61c-4.883,5.579-11.509,7.672-11.509,14.995
				c0,2.006,1.046,3.052,1.046,5.057c0,2.528-0.437,4.01-1.046,6.451c4.969,2.441,8.282,3.4,12.206,7.324v8.456
				c0,5.231-2.964,7.672-4.882,12.468c-5.319,12.815-11.857,24.761-25.807,24.761c-4.621,0-3.401-8.719-8.021-8.719
				c-6.625,0-10.113,3.836-16.739,3.836c-5.493,0-8.457-2.093-13.949-2.093c-2.964,0-4.708,0.698-7.672,0.698
				c-3.75,0-5.319-3.138-9.067-3.138c-2.18,0-2.703,2.79-4.883,2.79c-6.626,0-10.985-1.918-15.693-6.626
				c-8.806,5.231-15.519,4.794-24.411,9.765c-6.365,3.574-3.226,12.031-8.718,16.739c-2.18,1.83-4.448,1.656-6.278,3.836
				c-4.708,5.579-4.185,10.636-6.974,17.437c-4.314,10.507-7.643,17.932-10.393,26.492c-1.585,4.936-2.979,10.247-4.255,16.751
				c-0.785,0.872-1.308,1.656-2.441,2.092c1.57,1.744,2.79,2.877,2.79,5.231c0,5.317-5.231,7.236-5.231,12.555
				c0,3.836,3.487,5.492,3.487,9.328v7.149c0,2.703,1.744,4.098,1.744,6.801v7.411l1.395-0.348c0.871,11.246,5.143,17,10.462,26.852
				c3.051,5.755-1.221,11.509,2.79,16.74c2.005,2.615,5.057,1.743,8.37,1.743c-1.394,3.402-2.44,5.668-2.44,9.417
				c0,6.54,6.363,10.811,12.903,10.811c1.655,0,2.528-1.047,4.185-1.047c1.712,0,3.114,0.388,4.36,1.01l172.87-230.494
				L233.806,277.597z"/>
		</g>
		<g>
			<g>
				<g>
					<path fill="none" d="M352.959,1378.861c0.323,0.323,0.653,0.632,0.987,0.936v-1.516
						C353.625,1378.473,353.298,1378.666,352.959,1378.861z"/>
					<path fill="#E32118" d="M1017.336,1628.84c0-3.662-2.785-5.06-4.184-8.37c-0.517-1.223-2.093-1.395-2.093-2.79
						c0-5.58,4.884-8.346,4.185-13.95c-0.93-7.439-1.861-14.88-2.79-22.319c-0.975-7.802,2.965-11.858,4.881-19.529
						c0.522-2.092,0.217-3.488,0.699-5.231c4.881-0.523,7.672-0.348,12.554,0.349l297.123-1.395l259.459-1.395l295.728,4.185
						l262.25-4.185c7.149,0,12.38,4.185,19.529,4.185c10.463,0,16.042-3.487,26.504-3.487c11.159,0,17.088,5.057,27.898,7.672
						l5.58-1.395h16.74l13.949-2.092h14.647l36.966-4.185h13.949l39.756,3.487l13.95-2.79l0.907-403.9H477.143
						c-1.652,2.142-3.534,4.325-5.963,6.754l4.185,27.55c0,6.886-3.487,10.462-3.487,17.349v5.754
						c0,8.981,1.655,15.693-4.185,22.581c-2.878,3.4-7.76,0-11.16,2.79c-1.744,1.395-0.871,3.487-1.744,5.58
						c-2.44,5.58-7.063,6.713-9.764,12.206c-1.047,6.363,1.221,13.078-4.533,15.692c-3.227,1.482-5.494,1.744-9.068,1.744
						c-2.44,0-3.836-1.394-6.277-1.394c-8.283,0-10.898,8.543-19.181,9.067c0.784,3.313,2.791,4.968,2.791,8.37
						c0,15.431-12.555,22.231-12.555,37.664c0,2.178,1.046,3.399,1.046,5.579c0,7.758-5.58,10.811-9.417,17.437
						c-4.184,7.235-2.092,14.298-8.02,20.227c-3.226,3.225-7.149,1.918-11.509,3.487c-6.082,2.138-9.068,4.972-14.357,8.139v1.516
						c6.872,6.261,15.753,8.761,15.753,18.156v8.544c0,1.133-0.698,1.744-1.046,2.703l1.046,4.185
						c1.395-0.174,2.092-0.698,3.487-0.698c6.364,0,9.067,5.492,11.857,11.16c2.702,5.405,4.708,8.456,6.974,13.949
						c2.005,4.882,0.959,12.206,6.278,12.206c3.225,0,4.446-3.139,7.672-3.139c7.235,0,11.42,4.01,15.693,9.765
						c2.267-1.482,2.178-3.836,3.487-6.278c2.876-5.144,7.324-7.672,13.252-7.672c4.969,0,7.585,1.744,12.555,1.744
						c8.979,0,9.242-14.298,18.221-14.298h7.149c5.667,0,7.672-4.708,11.944-8.37c4.446-3.75,8.805-3.052,14.647-3.487l8.37,1.046
						c2.79-0.611,4.446-1.394,7.324-1.394c8.107,0,10.723,8.718,18.831,8.718c2.791,0,4.185-1.744,6.974-1.744
						c2.965,0,5.232,3.313,4.534,6.277l1.394,0.349c1.047-0.611,1.57-1.395,2.791-1.395c1.917,0,1.917,2.528,2.79,4.185
						c1.57,2.79,2.964,4.271,4.534,6.974c3.313,5.58,7.409,7.498,10.462,13.252c5.318,9.851,9.851,15.519,12.554,26.504
						c9.067,11.42,6.539,21.533,10.463,35.222c1.569,5.406,4.794,7.497,7.323,12.554c4.185-5.58,8.805-6.626,14.299-10.811
						c2.963-2.267,4.271-5.231,8.02-5.231c2.353,0,3.923,0.435,5.58,2.092c4.969-6.626,10.636-8.02,18.483-10.462
						c5.056-1.57,12.554,0.086,12.554-5.231c0-2.442-0.611-3.836-0.175-6.278c1.132,0.086,1.83,0.348,2.964,0.348
						c3.399,0,3.225-4.533,6.277-5.928c2.442-1.133,4.534,1.047,6.975,0c1.744-0.697,1.83-2.529,3.139-3.836
						c5.317-5.319,9.502-7.586,13.949-13.601c-3.519-0.773-5.433-1.883-8.9-2.748c-0.055-0.013,10.295,1.085,10.295-3.965v-6.801
						c0-8.281,2.79-12.729,2.79-21.011c9.067,0,10.201-9.939,17.437-15.344c5.492-4.098,11.072-1.657,16.739-5.58
						c6.801-4.708,6.974-11.421,13.6-16.39c3.662-2.704,5.667-4.621,9.765-6.626c3.313-1.657,6.974-2.878,6.974-6.626
						c0-2.355-3.226-1.57-5.231-2.791c-3.139-1.831-3.662-4.358-6.278-6.974c3.923,0.959,5.232,3.487,8.719,5.232
						c4.185,2.092,8.281,1.917,10.462,6.277c5.755-1.918,8.805-3.75,13.601-7.324l1.046-1.395
						c-1.744,10.637-14.56,8.37-23.016,14.647c-5.406,4.01-4.882,9.765-9.765,14.646c-3.75,3.749-6.888,4.447-11.159,7.324
						c-7.15,4.883-10.202,9.154-17.786,13.252c-5.319,2.876-12.816,0.784-14.298,6.626c-1.569,6.189-2.092,9.94-2.092,16.391
						c0,3.399,1.394,5.317,1.394,8.718c0,5.056-2.092,7.758-2.092,12.815c0,2.441,0.348,3.924,0.086,6.365l1.657,0.348
						c4.62-8.02,13.426-7.759,22.668-6.974c10.636,0.959,13.513-12.554,24.149-12.554h7.149c13.6,0,20.575,5.58,33.915,8.37
						c0.959-3.052,1.046-5.406,0-8.37c3.487,2.79,4.185,5.754,6.626,9.416c4.097,6.103,11.159,3.662,18.134,5.928
						c8.631,2.877,13.165,6.975,22.319,6.975c16.565,0,24.761-9.242,38.013-19.181c-1.047,2.092-1.918,3.313-2.441,5.58
						c0.523,0,0.784,0.348,1.307,0.348c3.138,0,4.533-2.18,7.411-3.139c4.354-1.567,7.75-2.528,10.104-6.611
						c-0.461,0.881-7.915,15.335-11.499,19.166c-5.928,6.364-13.6,2.267-21.622,5.58c-3.487,1.394-4.533,4.271-8.02,5.928
						c-5.405,2.528-9.329,1.132-15.344,2.092c1.482,2.616,2.701,4.185,3.836,6.975l-0.348,1.394
						c-5.667-1.831-8.544-4.882-14.473-4.882c-11.334,0-17.699,2.179-28.771,4.882c3.139,9.416,7.759,13.427,12.206,22.32
						c-0.349,9.765,0,15.344,0,25.109c0,2.79,0.871,5.406,2.79,7.324c-2.018,2.016-3.949,3.04-5.995,3.862
						c1.57,0.523,4.635,3.397,6.379,3.397c12.031,0,18.657-2.092,30.688-2.092c4.882,0,7.67,1.083,12.554,1.394
						c3.311,0.211,5.058-0.772,8.37-0.697c4.361,0.098,7.155,1.381,11.16,2.79c5.409,1.903,6.847,6.05,11.159,9.765
						c7.02,6.049,11.519,9.585,16.042,17.436c4.717,8.189,8.199,15.158,17.437,17.437c4.188,1.033,6.801-0.698,11.159-0.698
						c7.324,0,11.141,4.552,16.043,9.765c3.294,3.504,4.718,6.272,6.974,10.461c1.405,2.609,2.441,5.58,5.58,5.58
						c4.881,0,7.671-1.395,12.554-1.395c5.405,0,8.545,1.238,13.949,0.698c3.314-0.33,5.057-1.394,8.37-1.394
						c5.754,0,8.195,4.881,13.95,4.881C1015.244,1635.814,1017.336,1632.327,1017.336,1628.84z"/>
					<path fill="#FFFFFF" d="M2376.61,667.598H796.063c-2.208,1.732-4.093,3.724-6.138,6.467c-0.611-1.569-1.047-2.529-1.395-4.185
						c-3.139,4.185-7.063,4.708-10.462,8.719c-2.268,2.701-1.832,5.666-4.185,8.369c-1.395,1.656-3.575,0.785-5.58,1.745
						c-2.441,1.221-2.529,3.574-4.185,5.579c-2.267,2.702-4.882,4.359-4.882,8.021c0,3.662,2.441,5.405,2.441,9.067
						c0,2.79-0.437,5.231-2.79,6.625c0.523,1.308,1.394,2.006,1.394,3.488c0,6.363-2.267,9.677-2.789,16.042
						c0,11.943-7.935,17.96-14.996,27.55c-12.468,16.913-23.627,30.34-44.638,30.34c-1.221,10.2-7.411,13.862-12.904,22.668
						c-5.404,8.719-8.195,13.513-13.251,22.319c-2.093-0.698-3.313-1.744-5.58-1.744c-5.057,0-5.58,5.754-8.021,10.113
						c-2.092,3.836-7.236,1.221-11.159,3.139c-3.75,1.83-4.185,7.323-8.37,6.974c-1.918,11.77-17.785,12.641-17.785,24.411
						c0,1.744,1.569,2.353,1.569,4.097v11.334c0,6.278-5.405,8.981-5.405,15.259c0,4.359,0.698,6.974,1.744,11.159
						c1.57-1.569,2.179-2.878,4.185-3.836c1.744,4.185,1.83,7.15,4.185,11.16c2.005,3.399,5.492,3.574,7.324,6.974
						c4.097,7.41,4.794,12.641,9.764,19.529c6.801,9.328,15.52,9.94,26.504,13.601c8.544,2.79,13.252,6.626,22.319,6.626
						c10.2,0,13.426-8.719,21.622-14.647c13.252-9.679,23.452-13.6,39.842-13.6c2.441,0,3.75,0.348,6.191,0.348
						c0.435,0.261,0.871,0.523,1.394,0.698c-2.44,2.441-4.533,4.185-8.02,4.185c-2.703,0-4.273-0.698-6.974-0.698
						c-7.673,0-15.693,4.185-15.693,11.858c0,3.313,4.533,4.01,4.533,7.323c0,1.132-0.698,1.744-1.046,2.789v2.093
						c3.662,0.261,8.718-0.175,8.718,3.487c0,3.139,0.349,7.672-2.789,7.672c-9.416,0-5.231-19.181-14.647-19.181
						c-4.795,0-7.236,2.354-11.857,3.487c0,4.534-3.575,6.539-6.974,9.417c-7.76,6.626-14.909,7.672-25.109,7.672
						c-6.451,0-10.724-0.263-16.042-3.836c-2.267-1.483-2.267-4.447-4.882-5.231c-14.212-4.359-22.493-12.555-27.201-26.853
						l-1.395-0.349c-5.842,5.841-10.811,6.887-17.088,11.858c-2.355,1.83-6.626,1.132-6.626,4.185c0,1.918,1.046,2.964,1.046,4.882
						c0,10.025-5.58,15.169-8.719,24.76c-1.569,4.708-5.056,6.278-6.974,10.811c-0.872,2.005,0.175,3.4,0,5.58
						c-0.611,8.02-3.836,12.032-6.626,19.529c-2.529,6.801-3.924,11.334-9.416,16.042c-2.529,2.093-2.616,6.016-5.928,6.626
						c-4.359,0.872-8.37-0.959-11.16,2.441c-6.016,7.149-0.871,15.344-5.231,23.715c-2.355,4.533-7.672,2.615-11.857,5.579
						c-4.185,2.964-3.924,7.061-6.974,11.159c-6.017,8.021-14.123,7.498-23.715,10.463c-6.365,1.918-7.149,7.933-12.554,11.857
						c-3.487,2.528-6.19,3.139-9.764,5.579c-2.616,1.745-2.79,4.359-4.534,6.975c-3.765,5.502-6.112,9.582-9.381,13.822h1898.38
						L2376.61,667.598z"/>
					<polygon fill="#3E9A00" points="867.456,290.061 867.46,290.061 867.46,290.061 					"/>
					<path fill="#3E9A00" d="M2376.709,623.783l-1.744-56.495l1.395-125.197c0-12.643,0.261-20.227,0.261-32.868
						c0-9.591-3.4-14.734-3.4-24.324l2.791-20.924l-0.002-0.001h-107.759c-12.554-5.231-20.837-7.497-32.781-13.949
						c-3.139-1.656-5.755-1.569-8.37-4.185c-8.108,6.016-11.683,10.898-20.576,16.042l-986.229-3.139
						c-9.067,5.231-15.519,10.636-23.016,18.135c-5.405-7.324-6.801-17.437-16.043-17.437c-6.45,0-10.81,0-16.739,2.092
						c-9.241,3.314-10.287,15.345-20.227,15.345c-5.928,0-8.02-5.58-13.949-5.58c-7.672,0-12.032,2.79-19.703,2.79
						c-8.021,0-12.554-0.697-20.576-0.697c-9.939,0-15.344-8.37-19.006-17.437c-2.791,6.974-2.093,17.437-9.765,17.437
						c-18.135,0-26.503-13.252-44.638-13.252c-2.79,0-4.185,1.046-6.974,1.394l-71.84-26.503c-1.221,5.405-2.79,11.857-8.37,11.857
						c-8.37,0-11.858-9.765-11.858-18.135c0-9.59-9.241-16.042-18.831-16.042c0-14.297-17.004-21.601-31.301-22.649l-0.001,0.001
						c-0.357,0.5-1.915-2.827-5.345-12.161c-2.616-7.149-5.842-10.636-7.672-18.135c-1.657-6.8-1.918-14.037-8.719-15.692
						c2.528-7.149,6.975-10.376,6.975-17.874v-8.195c0-4.446,0-7.41-2.093-11.247c-1.657-3.052-6.277-2.878-6.277-6.365v-6.887
						c-2.267-2.006-3.227-3.749-4.185-6.626h-2.791c-0.785,6.189-4.272,11.857-10.462,11.857c-3.575,0-5.494-1.744-9.067-1.744
						c-5.231,0-6.103,5.928-10.811,8.021c-5.58,2.528-13.6,1.83-13.6,8.021c0,5.405,2.179,8.195,3.836,13.251
						c5.755,17.437,10.113,27.637,10.113,46.033c0,2.877-1.221,4.446-2.44,6.975l5.754,22.318v25.109
						c-0.437,9.677-1.221,15.082-1.221,24.761c0,10.374,3.139,16.128,3.139,26.503c0,13.601-6.626,20.576-6.626,34.176
						c-1.046-0.61-1.832-1.133-2.79-1.744l-1.395,0.349c-0.698,4.62,0.175,8.804-3.836,11.159c-4.01,2.353-7.759,1.744-11.159,4.882
						c-4.447,4.185-1.744,9.59-3.836,15.344c-0.61,1.744-2.79,2.267-2.79,4.185c0,6.364,5.492,8.456,6.974,14.647
						c2.441,9.939,7.235,14.298,11.16,23.714c5.928,14.384,3.922,24.411,9.416,39.058c3.139,8.371,6.364,12.642,9.765,20.925
						c5.143,12.38,4.62,20.75,7.323,33.827c1.57,7.585,4.534,11.769,4.534,19.529c0,1.395-0.698,2.093-0.698,3.488
						c0,6.015,1.744,9.327,1.744,15.344c0,9.241-5.405,18.831-14.646,18.831c-0.872,0-1.221-1.046-2.093-1.046
						c-1.221,0-2.79,0.175-2.79,1.395c0,1.394,0.698,2.092,0.698,3.487c0,4.185-2.007,6.363-2.791,10.462
						c-1.134,5.841-1.744,11.16-6.974,13.95c-2.239,1.194-4.067,2.349-5.719,3.646H2376.61L2376.709,623.783z"/>
				</g>
				<path fill="#3E9A00" d="M352.959,1378.861c0.323,0.323,0.653,0.633,0.987,0.936v-1.516
					C353.625,1378.474,353.298,1378.666,352.959,1378.861z"/>
				<polygon fill="#3E9A00" points="867.456,290.061 867.46,290.061 867.46,290.061 				"/>
				<path fill="#0073CE" d="M779.531,677.099c-0.495,0.446-0.984,0.936-1.463,1.5c-2.268,2.701-1.832,5.666-4.185,8.369
					c-1.395,1.656-3.575,0.785-5.58,1.744c-2.441,1.221-2.529,3.574-4.185,5.579c-2.267,2.702-4.882,4.36-4.882,8.021
					s2.441,5.405,2.441,9.067c0,2.79-0.437,5.231-2.79,6.625c0.523,1.308,1.394,2.006,1.394,3.488c0,6.363-2.267,9.677-2.789,16.042
					c0,11.943-7.935,17.96-14.996,27.55c-12.468,16.913-23.627,30.34-44.638,30.34c-1.221,10.2-7.411,13.861-12.904,22.668
					c-5.404,8.719-8.195,13.513-13.251,22.319c-2.093-0.698-3.313-1.743-5.58-1.743c-5.057,0-5.58,5.754-8.021,10.113
					c-2.092,3.835-7.236,1.22-11.159,3.139c-3.75,1.83-4.185,7.323-8.37,6.974c-1.918,11.77-17.785,12.641-17.785,24.411
					c0,1.744,1.569,2.353,1.569,4.097v11.334c0,6.278-5.405,8.981-5.405,15.259c0,4.359,0.698,6.974,1.744,11.159
					c1.57-1.569,2.179-2.878,4.185-3.836c1.744,4.185,1.83,7.15,4.185,11.16c2.005,3.399,5.492,3.573,7.324,6.974
					c4.097,7.41,4.794,12.641,9.764,19.529c6.801,9.328,15.52,9.94,26.504,13.602c8.544,2.79,13.252,6.626,22.319,6.626
					c10.2,0,13.426-8.719,21.622-14.647c13.252-9.678,23.452-13.601,39.842-13.601c2.441,0,3.75,0.348,6.191,0.348
					c0.435,0.261,0.871,0.523,1.394,0.698c-2.44,2.441-4.533,4.185-8.02,4.185c-2.703,0-4.273-0.698-6.974-0.698
					c-7.673,0-15.693,4.185-15.693,11.858c0,3.313,4.533,4.01,4.533,7.323c0,1.132-0.698,1.744-1.046,2.79v2.093
					c3.662,0.261,8.718-0.175,8.718,3.487c0,3.139,0.349,7.672-2.789,7.672c-9.416,0-5.231-19.181-14.647-19.181
					c-4.795,0-7.236,2.354-11.857,3.487c0,4.534-3.575,6.539-6.974,9.417c-7.76,6.626-14.909,7.672-25.109,7.672
					c-6.451,0-10.724-0.263-16.042-3.836c-2.267-1.482-2.267-4.447-4.882-5.231c-14.212-4.36-22.493-12.554-27.201-26.853
					l-1.395-0.349c-5.842,5.841-10.811,6.887-17.088,11.858c-2.355,1.83-6.626,1.132-6.626,4.185c0,1.918,1.046,2.964,1.046,4.882
					c0,10.025-5.58,15.169-8.719,24.76c-1.569,4.708-5.056,6.278-6.974,10.811c-0.872,2.005,0.175,3.4,0,5.58
					c-0.611,8.021-3.836,12.032-6.626,19.529c-2.529,6.801-3.924,11.334-9.416,16.042c-2.529,2.093-2.616,6.016-5.928,6.626
					c-4.359,0.872-8.37-0.959-11.16,2.441c-6.016,7.149-0.871,15.344-5.231,23.715c-2.355,4.533-7.672,2.615-11.857,5.579
					c-4.185,2.964-3.924,7.061-6.974,11.159c-6.017,8.021-14.123,7.498-23.715,10.462c-6.365,1.918-7.149,7.933-12.554,11.857
					c-3.487,2.528-6.19,3.139-9.764,5.579c-2.616,1.745-2.79,4.36-4.534,6.975c-3.765,5.502-6.112,9.582-9.381,13.822
					c-1.652,2.142-3.534,4.325-5.963,6.754l4.185,27.55c0,6.886-3.487,10.462-3.487,17.349v5.754c0,8.981,1.655,15.693-4.185,22.581
					c-2.878,3.4-7.76,0-11.16,2.79c-1.744,1.395-0.871,3.487-1.744,5.58c-2.44,5.58-7.063,6.713-9.764,12.206
					c-1.047,6.363,1.221,13.078-4.533,15.692c-3.227,1.482-5.494,1.744-9.068,1.744c-2.44,0-3.836-1.395-6.277-1.395
					c-8.283,0-10.898,8.543-19.181,9.067c0.784,3.313,2.791,4.968,2.791,8.37c0,15.431-12.555,22.231-12.555,37.664
					c0,2.178,1.046,3.399,1.046,5.579c0,7.758-5.58,10.811-9.417,17.437c-4.184,7.235-2.092,14.298-8.02,20.227
					c-3.226,3.225-7.149,1.918-11.509,3.487c-6.082,2.138-9.068,4.972-14.357,8.139v1.516c6.872,6.261,15.753,8.761,15.753,18.156
					v8.544c0,1.133-0.698,1.743-1.046,2.703l1.046,4.185c1.395-0.174,2.092-0.698,3.487-0.698c6.364,0,9.067,5.492,11.857,11.16
					c2.702,5.405,4.708,8.456,6.974,13.949c2.005,4.883,0.959,12.206,6.278,12.206c3.225,0,4.446-3.139,7.672-3.139
					c7.235,0,11.42,4.01,15.693,9.765c2.267-1.482,2.178-3.836,3.487-6.278c2.876-5.145,7.324-7.672,13.252-7.672
					c4.969,0,7.585,1.743,12.555,1.743c8.979,0,9.242-14.298,18.221-14.298h7.149c5.667,0,7.672-4.708,11.944-8.37
					c4.446-3.75,8.805-3.052,14.647-3.487l8.37,1.046c2.79-0.611,4.446-1.394,7.324-1.394c8.107,0,10.723,8.718,18.831,8.718
					c2.791,0,4.185-1.744,6.974-1.744c2.965,0,5.232,3.313,4.534,6.277l1.394,0.349c1.047-0.611,1.57-1.396,2.791-1.396
					c1.917,0,1.917,2.528,2.79,4.185c0.721,1.281,1.405,2.284,2.085,3.259l395.937-527.917L779.531,677.099z"/>
			</g>
			<g>
				<g id="shield">
					<path fill="#FFFFFF" stroke="#000000" stroke-width="9.3506" d="M1531.134,753.994h248.701v260.519
						c0,87.662-114.286,20.13-124.026,66.883c-16.883-48.052-124.026,21.429-124.026-72.078
						C1531.783,918.41,1531.134,753.994,1531.134,753.994z"/>
					<path fill="#73452B" stroke="#000000" stroke-width="1.9481" d="M1673.342,1039.838c0,0-3.247,3.247-9.091,0.649
						s-6.494-166.883-6.494-166.883c12.987-14.286,23.377-18.831,23.377-18.831l7.792,6.494
						c-29.221,14.935-26.623,36.364-24.026,73.377c0.649,13.636,0.649,31.169,3.896,48.052c4.546,21.429,13.636,39.61,14.286,53.247
						C1683.731,1044.384,1673.342,1039.838,1673.342,1039.838z"/>
					<path fill="#73452B" stroke="#000000" stroke-width="1.9481" d="M1653.212,850.877h11.688
						c-9.74,94.156-1.299,150-1.299,177.273c0,9.091,5.195,12.338,4.545,12.338c-11.688,12.987-17.532-0.649-17.532-0.649
						L1653.212,850.877z"/>
					<path fill="#A36629" stroke="#000000" stroke-width="1.9481" d="M1635.03,1039.838c-11.039,5.195-12.338-5.195-11.688-6.494
						c24.026-48.701,34.416-155.844,12.338-167.532l1.299-10.39c8.442,2.597,16.234,13.636,16.234,13.636
						c3.247,120.13,0,169.481-1.948,171.429c-11.688,12.338-16.234-1.948-16.883-3.247"/>
					<path fill="none" stroke="#000000" stroke-width="1.9481" d="M1634.381,1037.89c-1.948-10.39,16.883-37.013,15.584-64.935"/>
					<path fill="none" stroke="#000000" stroke-width="1.9481" d="M1666.199,995.682c5.844,16.234,8.442,30.52,7.143,44.156"/>
					<path fill="#009A3B" stroke="#000000" stroke-width="1.9481" d="M1691.524,806.721c3.896-4.545,3.896-4.545,11.039-4.545
						c1.299-9.74,17.532-9.74,18.831,2.597c12.987-2.597,15.584,5.195,10.39,12.987c12.338-3.247,23.377,0,20.13,14.286
						c22.078,5.844,13.636,21.429,3.896,24.675c-1.299,9.74-10.39,12.987-22.727,9.091c-15.584,11.039-24.675,7.143-31.818-3.896
						c-17.532,2.597-18.831-1.299-26.623-11.039c-13.636,5.844-16.234,5.844-27.922-1.299c-0.649,9.091-3.896,6.493-9.74,5.844
						c0.649,11.688-3.896,16.883-14.286,12.987c7.792,16.234-12.338,23.377-22.078,9.74c-9.091,0.649-9.74-1.948-14.286-5.195
						c-3.896,12.987-18.182,11.039-20.779,3.896c-18.182-2.597-16.234-12.338-1.299-12.987c1.299-10.39,10.39-8.442,16.234-7.143
						c0.649-6.493,4.545-5.195,7.792-3.896c-1.948-4.545-0.649-7.143,5.195-8.442c-8.442-11.039-3.247-14.935,5.195-18.831
						c-4.545-10.39,3.247-9.74,9.091-10.39c-0.649-11.039,2.597-12.987,14.286-14.286c-1.299-3.896,0.649-7.143,7.143-7.143
						c-3.896-11.039,1.299-13.571,12.987-11.688c1.948-16.039,36.364-8.442,33.766,13.636
						C1685.68,796.981,1688.926,798.929,1691.524,806.721z"/>
					<g>
						<path fill="none" stroke="#000000" stroke-width="1.9481" d="M1622.043,800.877c2.597,1.299,5.844,0,6.494,7.143
							c5.195-9.091,11.688-3.896,11.688,6.494"/>
						<path fill="none" stroke="#000000" stroke-width="1.9481" d="M1675.939,795.682c-2.597,3.896-12.338,3.896-11.039,14.286
							c-3.247-4.545-9.74-5.844-12.338-1.299"/>
						<path fill="none" stroke="#000000" stroke-width="1.9481" d="M1691.524,806.721c0,2.597-0.649,10.39-3.247,14.286"/>
						<path fill="none" stroke="#000000" stroke-width="1.9481" d="M1731.783,817.76c0.649,0.649-9.091,0-13.636,3.247"/>
						<path fill="none" stroke="#000000" stroke-width="1.9481" d="M1755.809,856.721c-2.597-1.299-7.792-4.545-11.688,0.649
							c0-2.597,0-9.74-7.143-9.74"/>
						<path fill="none" stroke="#000000" stroke-width="1.9481" d="M1733.082,865.812c0-6.494-1.299-8.442-2.597-10.39"/>
						<path fill="none" stroke="#000000" stroke-width="1.9481" d="M1711.654,856.721c-5.195-3.896-10.39,1.948-10.39,5.195"/>
						<path fill="none" stroke="#000000" stroke-width="1.9481" d="M1673.991,850.877c0-2.597-1.948-7.792,2.597-9.74"/>
						<path fill="none" stroke="#000000" stroke-width="1.9481" d="M1599.965,878.15c1.299-6.494,5.844-6.494,5.195-9.74
							c-0.649-5.195-6.494-9.74-13.636-2.597"/>
						<path fill="none" stroke="#000000" stroke-width="1.9481" d="M1605.16,868.41c3.896-1.299,7.792-0.649,9.091,1.299"/>
						<path fill="none" stroke="#000000" stroke-width="1.9481" d="M1594.121,844.384c2.597-2.597,9.091-1.948,12.987,0"/>
						<path fill="none" stroke="#000000" stroke-width="1.9481" d="M1607.108,828.799c3.247,0,9.091-1.299,11.039,4.545
							c7.143-11.039,12.338-9.74,13.636-7.143"/>
						<path fill="none" stroke="#000000" stroke-width="1.9481" d="M1644.771,824.903c5.195-1.948,14.286,3.247,19.48,12.338
							c2.597-7.143,6.494-5.844,10.39-6.494"/>
						<path fill="none" stroke="#000000" stroke-width="1.9481" d="M1699.316,837.241c8.442-3.896,13.636,3.896,16.234,7.143
							c3.896-5.195,7.143-5.195,11.039-5.195"/>
						<path fill="none" stroke="#000000" stroke-width="1.9481" d="M1620.745,852.825c1.948-3.247,6.494-3.896,9.74-1.948
							c-0.649-5.844,3.247-8.442,5.844-7.143"/>
					</g>
				</g>
				<g id="stars">
					<path fill="#FFD700" stroke="#000000" stroke-width="6.8182" d="M1647.368,717.501l-14.286,0.649l-7.143,12.792l-7.792-12.208
						l-14.286,0.584l6.494-12.857l-7.792-12.208l14.935-0.649l6.494-12.792l7.792,12.208l14.286-0.584l-6.494,12.857
						L1647.368,717.501z"/>
					<path fill="#FFD700" stroke="#000000" stroke-width="6.8182" d="M1586.329,722.241l-14.286,3.506l-3.896,13.831l-10.39-10.39
						l-13.636,3.377l3.896-13.831l-9.74-10.519l13.636-3.442l3.896-13.896l10.39,10.39l14.286-3.377l-4.545,13.896L1586.329,722.241
						z"/>
					<path fill="#FFD700" stroke="#000000" stroke-width="6.8182" d="M1527.238,734.384l-12.987,6.429l-0.649,14.416l-12.338-7.922
						l-12.987,6.364l1.299-14.416l-12.338-7.987l12.987-6.494l1.299-14.416l11.688,7.922l12.987-6.364l-0.649,14.416
						L1527.238,734.384z"/>
					<path fill="#FFD700" stroke="#000000" stroke-width="6.8182" d="M1666.199,717.501l14.286,0.649l6.494,12.792l7.792-12.208
						l14.286,0.584l-6.494-12.857l7.792-12.208l-14.286-0.649l-7.143-12.792l-7.792,12.208l-14.286-0.584l6.494,12.857
						L1666.199,717.501z"/>
					<path fill="#FFD700" stroke="#000000" stroke-width="6.8182" d="M1727.238,722.241l13.636,3.506l3.896,13.831l10.39-10.39
						l13.636,3.377l-3.896-13.831l10.39-10.519l-14.286-3.442l-3.896-13.896l-10.39,10.39l-13.636-3.377l3.896,13.896
						L1727.238,722.241z"/>
					<path fill="#FFD700" stroke="#000000" stroke-width="6.8182" d="M1785.68,734.384l12.987,6.429l0.649,14.416l12.338-7.922
						l12.987,6.364l-0.649-14.416l11.688-7.987l-12.987-6.494l-0.649-14.416l-12.338,7.922l-12.987-6.364l1.299,14.416
						L1785.68,734.384z"/>
				</g>
				<g id="motto">
					<g>
						<path fill="#FFFFFF" stroke="#000000" stroke-width="6.8182" d="M1803.212,1009.319l16.234,23.377l14.935-22.078
							l-10.39-18.831L1803.212,1009.319z"/>
						<path fill="#FFFFFF" stroke="#000000" stroke-width="6.8182" d="M1699.965,1077.5l1.299,23.377c0,0,6.494,0,12.338-1.948
							c5.195-1.948,9.74-5.844,9.74-5.844l-0.649-12.338L1699.965,1077.5z"/>
						<path fill="#FFFFFF" stroke="#000000" stroke-width="6.8182" d="M1612.952,1077.5l-1.299,22.727c0,0-5.844,0-11.688-1.299
							c-5.195-1.299-9.74-4.545-9.74-4.545l-6.494-15.584L1612.952,1077.5z"/>
						<path fill="#FFFFFF" stroke="#000000" stroke-width="6.8182" d="M1508.407,1009.319l-16.883,23.377l-18.182-29.87
							l13.636-14.286L1508.407,1009.319z"/>
						<path fill="#FFFFFF" stroke="#000000" stroke-width="6.8182" d="M1589.576,1124.254c0,22.078,133.766,22.078,133.766,0
							v-31.169c0,16.234-133.766,12.987-133.766,0V1124.254z"/>
						<path fill="#FFFFFF" stroke="#000000" stroke-width="6.8182" d="M1470.095,1052.176
							c11.688,59.74,119.481,61.039,119.481,61.039v-20.13c-2.597-7.792,1.948-10.39,19.48-12.987
							c7.143-0.649,3.896-11.039,3.896-11.039s-46.753,8.442-79.87-4.545c-44.805-18.182-51.299-53.247-51.299-53.247
							S1478.537,1038.54,1470.095,1052.176z"/>
						<path fill="#FFFFFF" stroke="#000000" stroke-width="6.8182" d="M1842.173,1052.176
							c-11.039,59.74-118.831,61.039-118.831,61.039v-20.13c1.948-7.792-2.597-10.39-20.13-12.987
							c-7.143-0.649-3.247-11.039-3.247-11.039s46.753,8.442,79.87-4.545c44.156-18.182,49.351-53.247,49.351-53.247
							S1833.731,1038.54,1842.173,1052.176z"/>
						<path fill="#FFFFFF" stroke="#000000" stroke-width="6.8182" d="M1478.537,1029.449c-29.87-16.234-6.494-33.117-3.896-81.169
							c4.545,29.221,37.662,41.558,33.766,60.39c-13.636,0.649-20.13-20.13-26.623,2.597L1478.537,1029.449z"/>
						<path fill="#FFFFFF" stroke="#000000" stroke-width="6.8182" d="M1833.731,1029.449c29.87-16.883,5.195-33.117,2.597-81.169
							c-4.545,29.221-37.013,41.558-33.117,60.39c12.987,0.649,19.48-20.13,25.974,2.597l4.545,17.532V1029.449z"/>
					</g>
					<g>
						<path d="M1496.719,1051.526l3.247,2.597l-7.143,7.792c-2.859,3.119-3.55,5.182-1.564,7.081
							c2.465,2.357,4.198,1.538,6.759-1.237l7.792-8.442l2.597,2.597l-7.785,9.084c-4.226,4.931-8.149,3.803-11.44,0.729
							c-2.867-2.678-4.511-6.56-0.295-11.334l7.857-8.831L1496.719,1051.526z"/>
						<path d="M1509.706,1062.565l3.247,1.948l-0.649,15.584l7.143-11.039l3.247,1.948l-10.39,16.883l-3.896-1.948l0.649-15.584
							l-7.143,11.039l-3.247-1.948L1509.706,1062.565z"/>
						<path d="M1515.55,1089.838l9.091-18.182l3.247,1.948l-8.442,17.532L1515.55,1089.838z"/>
						<path d="M1529.835,1074.254l-7.169,18.818l7.169,2.61c6.682,2.435,9.818-0.506,11.942-6.156
							c2.143-5.747,1.208-9.974-5.474-12.662L1529.835,1074.254z M1532.407,1078.812c6.721,2.338,7.13,4.89,5.299,9.506
							c-1.773,4.383-3.429,6.097-9.818,2.805L1532.407,1078.812z"/>
						<path d="M1551.264,1081.397l-11.688,17.532l4.519,1.325l2.61-4.558l7.792,1.948l0.662,4.558l4.52,0.623l-4.52-20.766
							L1551.264,1081.397z M1552.55,1085.955l1.286,7.792l-5.182-0.662L1552.55,1085.955z"/>
						<path d="M1562.368,1083.085l-0.704,20.123l7.644,0.15c7.105,0.135,9.124-3.65,9.297-9.682
							c0.176-6.137-2.083-9.84-9.284-10.205L1562.368,1083.085L1562.368,1083.085z M1566.266,1086.577
							c7.12,0.029,8.336,2.301,8.086,7.269c-0.237,4.723-1.269,6.875-8.366,5.824L1566.266,1086.577L1566.266,1086.577z"/>
						<path d="M1630.485,1111.267v20.766h4.558v-7.792c0,0,3.896,0.234,7.13-0.623c2.552-0.662,4.325-2.299,4.383-6.331
							c0.058-3.954-2.24-6.02-6.214-6.02h-9.87H1630.485z M1635.043,1114.5l4.578,0.058c3.818,0,3.097,5.786,0.117,5.786h-4.695
							L1635.043,1114.5L1635.043,1114.5z"/>
						<path d="M1653.861,1111.267l-8.454,20.766h4.558l1.948-5.182h8.455l1.948,5.182h4.519l-8.442-20.779h-4.545L1653.861,1111.267
							z M1655.809,1115.825l3.234,7.792h-5.844L1655.809,1115.825z"/>
						<path d="M1666.848,1128.15l11.039-13.636h-9.74v-3.247h15.584v3.247l-11.688,13.636h11.688v3.896h-16.883V1128.15z"/>
						<path d="M1732.433,1087.89l3.896-0.649l1.948,11.688c0.693,4.157-1.207,6.99-4.165,8.081
							c-3.369,1.243-7.666,0.106-8.173-5.484l3.247-0.649c0.756,3.346,2.103,3.635,3.66,3.111c1.236-0.416,1.876-2.364,1.535-4.41
							L1732.433,1087.89z"/>
						<path d="M1738.926,1086.721l3.845-0.729l1.779,9.727c0.761,4.162,2.067,5.932,4.773,5.459
							c3.359-0.587,3.728-2.468,3.013-6.176l-2.39-10.377l3.933-0.594l2.61,10.794c1.526,6.313-1.772,8.817-6.198,9.643
							c-3.857,0.72-7.957-0.259-9.3-6.485L1738.926,1086.721z"/>
						<path d="M1759.056,1095.682l3.247-1.299c1.593,2.86,4.078,2.713,6.01,1.859c2.684-1.186,2.991-3.532,1.664-4.326
							c-1.893-1.132-6.408,0.476-8.841-0.412c-2.91-1.062-4.16-2.699-4.011-5.215c0.179-3.03,2.845-4.695,5.744-5.595
							c3.244-1.006,6.446-0.651,8.525,3.3l-3.896,1.299c-1.268-2.134-2.9-2.033-4.348-1.349c-1.212,0.573-3.106,1.648-2.092,3.38
							c0.829,1.416,5.601,0.496,8.116,0.599c2.6,0.106,4.701,1.842,5.052,4.342c0.49,3.486-0.801,5.374-4.832,6.946
							C1764.415,1101.153,1759.925,1098.978,1759.056,1095.682L1759.056,1095.682z"/>
						<path d="M1776.589,1079.449l-5.195,2.597l-1.299-3.247l14.286-5.844l1.299,2.597l-5.195,2.597l5.844,14.286l-3.247,1.948
							L1776.589,1079.449z"/>
						<path d="M1785.03,1072.306l3.247-1.948l9.091,16.883l-3.247,1.948L1785.03,1072.306z"/>
						<path d="M1807.108,1073.604l3.896-1.299c1.832,3.852-0.919,10.854-7.646,10.71c-9.847-0.211-10.912-11.057-9.364-14.634
							c2.601-6.008,9.886-5.893,13.114-2.569l-3.247,2.597c-2.058-2.641-6.631-0.977-6.94,1.453
							c-0.504,3.964,1.242,7.655,4.786,9.405C1804.713,1080.751,1809.344,1077.02,1807.108,1073.604L1807.108,1073.604z"/>
						<path d="M1805.16,1059.968l3.247-2.597l11.688,15.584l-3.247,2.597L1805.16,1059.968z"/>
						<path d="M1817.498,1050.228l-3.234,2.61l7.13,19.48l3.234-3.234l-1.948-3.896l5.844-5.221l3.896,1.948l3.273-2.571
							L1817.498,1050.228z M1818.783,1054.786l6.506,3.234l-3.896,3.896L1818.783,1054.786z"/>
					</g>
				</g>
			</g>
		</g>
	</g>
	<path fill="none" stroke="#000000" stroke-width="2" stroke-miterlimit="10" d="M867.46,290.061L867.46,290.061
		c-0.358,0.501-1.916-2.826-5.346-12.16c-2.616-7.149-5.842-10.636-7.672-18.135c-1.657-6.8-1.918-14.037-8.719-15.692
		c2.528-7.149,6.975-10.376,6.975-17.874v-8.195c0-4.446,0-7.41-2.093-11.247c-1.657-3.052-6.277-2.878-6.277-6.365v-6.887
		c-2.267-2.006-3.227-3.749-4.185-6.626h-2.791c-0.785,6.189-4.272,11.857-10.462,11.857c-3.576,0-5.494-1.744-9.067-1.744
		c-5.231,0-6.103,5.928-10.811,8.021c-5.58,2.528-13.601,1.83-13.601,8.021c0,5.405,2.179,8.195,3.836,13.251
		c5.755,17.437,10.113,27.637,10.113,46.033c0,2.877-1.221,4.446-2.44,6.975l5.754,22.318v25.109
		c-0.437,9.677-1.221,15.082-1.221,24.761c0,10.374,3.139,16.128,3.139,26.503c0,13.601-6.626,20.576-6.626,34.176
		c-1.046-0.61-1.832-1.133-2.79-1.744l-1.395,0.349c-0.698,4.62,0.175,8.804-3.836,11.159c-4.01,2.353-7.759,1.744-11.159,4.882
		c-4.447,4.185-1.744,9.59-3.836,15.344c-0.61,1.744-2.79,2.267-2.79,4.185c0,6.364,5.492,8.456,6.974,14.647
		c2.441,9.939,7.235,14.298,11.16,23.714c5.928,14.385,3.922,24.411,9.416,39.058c3.139,8.371,6.364,12.642,9.765,20.925
		c5.143,12.38,4.62,20.75,7.323,33.827c1.57,7.585,4.534,11.769,4.534,19.529c0,1.395-0.698,2.093-0.698,3.488
		c0,6.015,1.744,9.327,1.744,15.344c0,9.241-5.405,18.831-14.646,18.831c-0.872,0-1.221-1.046-2.093-1.046
		c-1.221,0-2.79,0.175-2.79,1.395c0,1.394,0.698,2.092,0.698,3.487c0,4.185-2.006,6.363-2.791,10.462
		c-1.134,5.841-1.744,11.16-6.974,13.95c-5.231,2.79-8.283,5.317-11.857,10.113c-0.611-1.569-1.047-2.529-1.395-4.185
		c-3.139,4.185-7.063,4.708-10.462,8.719c-2.268,2.701-1.832,5.666-4.185,8.369c-1.395,1.656-3.575,0.785-5.58,1.745
		c-2.441,1.221-2.529,3.574-4.185,5.579c-2.267,2.702-4.882,4.359-4.882,8.021c0,3.662,2.441,5.405,2.441,9.067
		c0,2.79-0.437,5.231-2.79,6.625c0.523,1.308,1.394,2.006,1.394,3.488c0,6.363-2.267,9.677-2.79,16.042
		c0,11.943-7.935,17.96-14.996,27.55c-12.468,16.913-23.627,30.34-44.638,30.34c-1.221,10.2-7.411,13.862-12.904,22.668
		c-5.405,8.719-8.195,13.513-13.251,22.319c-2.093-0.698-3.313-1.744-5.58-1.744c-5.057,0-5.58,5.754-8.021,10.113
		c-2.092,3.836-7.236,1.221-11.159,3.139c-3.75,1.83-4.185,7.323-8.37,6.974c-1.918,11.77-17.785,12.641-17.785,24.411
		c0,1.744,1.569,2.353,1.569,4.097v11.334c0,6.278-5.405,8.981-5.405,15.259c0,4.359,0.698,6.974,1.744,11.159
		c1.57-1.569,2.179-2.878,4.185-3.836c1.744,4.185,1.83,7.15,4.185,11.16c2.005,3.399,5.492,3.574,7.324,6.974
		c4.097,7.41,4.794,12.641,9.764,19.529c6.801,9.328,15.52,9.94,26.504,13.601c8.544,2.79,13.252,6.626,22.319,6.626
		c10.2,0,13.426-8.719,21.622-14.647c13.252-9.679,23.452-13.601,39.842-13.601c2.441,0,3.75,0.348,6.191,0.348
		c0.435,0.261,0.871,0.523,1.394,0.698c-2.44,2.441-4.533,4.185-8.02,4.185c-2.703,0-4.273-0.698-6.974-0.698
		c-7.673,0-15.693,4.185-15.693,11.858c0,3.313,4.533,4.01,4.533,7.323c0,1.132-0.698,1.744-1.046,2.79v2.093
		c3.662,0.261,8.718-0.175,8.718,3.487c0,3.139,0.349,7.672-2.79,7.672c-9.416,0-5.231-19.181-14.647-19.181
		c-4.795,0-7.236,2.354-11.857,3.487c0,4.534-3.576,6.539-6.974,9.417c-7.76,6.626-14.909,7.672-25.109,7.672
		c-6.451,0-10.724-0.263-16.042-3.836c-2.267-1.483-2.267-4.447-4.882-5.231c-14.212-4.359-22.493-12.554-27.201-26.853
		l-1.395-0.349c-5.842,5.841-10.811,6.887-17.088,11.858c-2.355,1.83-6.626,1.132-6.626,4.185c0,1.918,1.046,2.964,1.046,4.882
		c0,10.025-5.58,15.169-8.719,24.76c-1.569,4.708-5.056,6.278-6.974,10.811c-0.872,2.005,0.175,3.4,0,5.58
		c-0.611,8.02-3.836,12.032-6.626,19.529c-2.53,6.801-3.924,11.334-9.416,16.042c-2.53,2.093-2.616,6.016-5.928,6.626
		c-4.359,0.872-8.37-0.96-11.16,2.441c-6.016,7.149-0.871,15.344-5.231,23.715c-2.355,4.533-7.672,2.615-11.857,5.579
		c-4.185,2.964-3.924,7.061-6.974,11.159c-6.017,8.021-14.123,7.498-23.715,10.463c-6.365,1.918-7.149,7.933-12.554,11.857
		c-3.487,2.528-6.19,3.139-9.764,5.579c-2.616,1.745-2.79,4.359-4.534,6.975c-5.667,8.281-8.109,13.338-15.344,20.576l4.185,27.55
		c0,6.886-3.487,10.462-3.487,17.349v5.754c0,8.981,1.655,15.693-4.185,22.581c-2.878,3.4-7.76,0-11.16,2.79
		c-1.744,1.395-0.871,3.487-1.744,5.58c-2.44,5.58-7.063,6.712-9.764,12.206c-1.047,6.363,1.221,13.078-4.533,15.692
		c-3.227,1.482-5.494,1.744-9.068,1.744c-2.44,0-3.836-1.394-6.277-1.394c-8.283,0-10.898,8.543-19.181,9.067
		c0.784,3.313,2.79,4.968,2.79,8.37c0,15.43-12.555,22.231-12.555,37.664c0,2.178,1.046,3.399,1.046,5.579
		c0,7.758-5.58,10.811-9.417,17.437c-4.184,7.235-2.092,14.298-8.02,20.227c-3.226,3.225-7.149,1.918-11.509,3.487
		c-6.451,2.267-9.416,5.318-15.344,8.719c6.974,6.974,16.739,9.242,16.739,19.092v8.544c0,1.133-0.698,1.744-1.046,2.703
		l1.046,4.185c1.395-0.174,2.092-0.698,3.487-0.698c6.364,0,9.067,5.492,11.857,11.16c2.702,5.405,4.708,8.456,6.974,13.949
		c2.005,4.883,0.959,12.206,6.278,12.206c3.225,0,4.446-3.139,7.672-3.139c7.235,0,11.42,4.01,15.693,9.765
		c2.267-1.483,2.178-3.836,3.487-6.278c2.876-5.144,7.324-7.672,13.252-7.672c4.969,0,7.585,1.744,12.555,1.744
		c8.979,0,9.242-14.298,18.221-14.298h7.149c5.667,0,7.672-4.708,11.944-8.37c4.446-3.75,8.805-3.052,14.647-3.487l8.37,1.046
		c2.79-0.611,4.446-1.394,7.324-1.394c8.107,0,10.723,8.718,18.831,8.718c2.791,0,4.185-1.744,6.974-1.744
		c2.965,0,5.232,3.313,4.534,6.277l1.394,0.349c1.047-0.611,1.57-1.395,2.791-1.395c1.917,0,1.917,2.528,2.79,4.185
		c1.57,2.79,2.964,4.271,4.534,6.974c3.313,5.58,7.409,7.498,10.462,13.252c5.318,9.851,9.851,15.519,12.554,26.504
		c9.067,11.42,6.539,21.533,10.463,35.222c1.569,5.406,4.794,7.497,7.323,12.554c4.185-5.58,8.805-6.626,14.299-10.811
		c2.963-2.267,4.271-5.231,8.02-5.231c2.353,0,3.923,0.435,5.58,2.092c4.969-6.626,10.636-8.02,18.483-10.462
		c5.056-1.57,12.554,0.086,12.554-5.231c0-2.442-0.611-3.837-0.175-6.278c1.132,0.086,1.83,0.348,2.964,0.348
		c3.399,0,3.225-4.533,6.277-5.928c2.442-1.133,4.534,1.047,6.975,0c1.744-0.697,1.83-2.529,3.139-3.835
		c5.317-5.319,9.502-7.586,13.949-13.601c-3.519-0.773-5.433-1.883-8.9-2.748c-0.055-0.013,10.295,1.085,10.295-3.965v-6.801
		c0-8.281,2.79-12.729,2.79-21.01c9.067,0,10.201-9.939,17.437-15.344c5.492-4.098,11.072-1.657,16.739-5.58
		c6.801-4.708,6.974-11.421,13.6-16.39c3.662-2.704,5.667-4.621,9.765-6.626c3.313-1.657,6.974-2.878,6.974-6.626
		c0-2.355-3.226-1.57-5.231-2.791c-3.139-1.831-3.662-4.359-6.278-6.974c3.923,0.959,5.232,3.487,8.719,5.232
		c4.185,2.092,8.281,1.917,10.462,6.277c5.755-1.918,8.805-3.75,13.601-7.324l1.046-1.395c-1.744,10.637-14.56,8.37-23.016,14.647
		c-5.406,4.01-4.882,9.765-9.765,14.646c-3.75,3.749-6.888,4.447-11.159,7.324c-7.15,4.882-10.202,9.154-17.786,13.252
		c-5.319,2.876-12.816,0.784-14.298,6.626c-1.569,6.189-2.092,9.939-2.092,16.391c0,3.399,1.394,5.317,1.394,8.718
		c0,5.056-2.092,7.758-2.092,12.816c0,2.441,0.348,3.924,0.086,6.365l1.657,0.348c4.62-8.02,13.426-7.759,22.668-6.974
		c10.636,0.959,13.513-12.555,24.149-12.555h7.149c13.6,0,20.575,5.58,33.915,8.37c0.959-3.052,1.046-5.406,0-8.37
		c3.487,2.79,4.185,5.754,6.626,9.416c4.097,6.103,11.159,3.662,18.134,5.928c8.631,2.877,13.165,6.975,22.319,6.975
		c16.565,0,24.761-9.242,38.013-19.181c-1.047,2.092-1.918,3.313-2.441,5.58c0.523,0,0.784,0.348,1.307,0.348
		c3.138,0,4.533-2.18,7.411-3.139c4.359-1.569,7.758-2.529,10.113-6.626c0.437-0.873-7.711,15.122-11.509,19.181
		c-5.928,6.364-13.6,2.266-21.622,5.58c-3.487,1.394-4.533,4.271-8.02,5.928c-5.405,2.528-9.329,1.132-15.344,2.092
		c1.482,2.616,2.701,4.185,3.836,6.975l-0.348,1.394c-5.667-1.831-8.544-4.882-14.473-4.882c-11.334,0-17.699,2.179-28.771,4.882
		c3.139,9.416,7.759,13.427,12.206,22.319c-0.349,9.765,0,15.344,0,25.109c0,2.79,0.871,5.405,2.79,7.324
		c-2.018,2.016-3.949,3.04-5.995,3.862l0,0c1.57,0.523,4.635,3.397,6.379,3.397c12.031,0,18.657-2.092,30.688-2.092
		c4.882,0,7.67,1.083,12.554,1.394c3.311,0.211,5.058-0.772,8.37-0.697c4.361,0.098,7.155,1.381,11.16,2.79
		c5.409,1.903,6.847,6.05,11.159,9.765c7.02,6.049,11.519,9.585,16.042,17.436c4.717,8.189,8.199,15.158,17.437,17.437
		c4.188,1.033,6.801-0.698,11.159-0.698c7.324,0,11.141,4.552,16.043,9.765c3.294,3.504,4.718,6.272,6.974,10.462
		c1.405,2.609,2.441,5.58,5.58,5.58c4.881,0,7.671-1.395,12.554-1.395c5.405,0,8.545,1.238,13.949,0.698
		c3.314-0.331,5.057-1.394,8.37-1.394c5.754,0,8.195,4.881,13.95,4.881c3.487,0,5.579-3.487,5.579-6.974
		c0-3.662-2.785-5.06-4.184-8.37c-0.517-1.223-2.093-1.395-2.093-2.79c0-5.58,4.884-8.346,4.185-13.95
		c-0.93-7.439-1.861-14.88-2.79-22.319c-0.975-7.802,2.965-11.858,4.881-19.529c0.522-2.092,0.217-3.488,0.699-5.231
		c4.881-0.523,7.672-0.348,12.554,0.349l297.123-1.395l259.459-1.395l295.728,4.185l262.25-4.185c7.149,0,12.38,4.185,19.529,4.185
		c10.463,0,16.042-3.487,26.504-3.487c11.159,0,17.088,5.057,27.898,7.672l5.58-1.395h16.74l13.949-2.092h14.647l36.966-4.185
		h13.949l39.756,3.487l13.95-2.79l2.092-931.823l-1.744-56.495l1.395-125.197c0-12.643,0.261-20.227,0.261-32.868
		c0-9.591-3.4-14.734-3.4-24.324l2.791-20.924l-0.002-0.001h-107.759c-12.554-5.231-20.837-7.497-32.781-13.949
		c-3.139-1.656-5.755-1.569-8.37-4.185c-8.108,6.016-11.683,10.898-20.576,16.042l-986.229-3.139
		c-9.067,5.231-15.519,10.636-23.016,18.135c-5.406-7.324-6.801-17.437-16.043-17.437c-6.45,0-10.81,0-16.739,2.092
		c-9.241,3.314-10.287,15.345-20.227,15.345c-5.928,0-8.021-5.58-13.949-5.58c-7.672,0-12.031,2.79-19.703,2.79
		c-8.021,0-12.554-0.697-20.576-0.697c-9.939,0-15.344-8.37-19.006-17.437c-2.791,6.974-2.093,17.437-9.765,17.437
		c-18.135,0-26.503-13.252-44.638-13.252c-2.79,0-4.185,1.046-6.974,1.394l-71.84-26.503c-1.221,5.405-2.79,11.857-8.37,11.857
		c-8.37,0-11.858-9.765-11.858-18.135c0-9.59-9.241-16.042-18.831-16.042c0-14.298-17.007-21.602-31.305-22.649L867.46,290.061z
		 M390.309,528.926l0.348,1.047c3.836-5.842,4.796-10.725,10.462-14.647c1.309-0.871,2.965-0.348,3.836-1.744
		c3.401-5.319,3.139-9.59,4.882-15.693c1.657-5.841,4.882-8.893,4.882-14.996c0-2.44-2.441-3.487-2.441-5.928
		c0-2.267,2.441-2.964,2.441-5.231c0-1.744-2.179-1.569-3.836-2.092c1.309-2.355,1.744-4.098,1.744-6.889v-7.497
		c0-6.626-5.928-9.328-5.928-15.954c0-5.493,6.017-6.8,11.16-8.718c6.19-2.267,10.113-3.487,15.692-6.974
		c4.185-2.616,3.401-7.586,7.324-10.463c6.277-4.708,10.811-9.155,10.811-17.001c0-0.609-0.349-0.872-0.349-1.482
		c-1.046-0.174-1.83-0.437-2.79-0.698c1.046-2.529,3.487-3.487,3.487-6.277c0-0.786-1.395-0.611-1.395-1.395
		c0-5.928,4.534-8.632,4.534-14.56c0-0.872,0.262-1.307,0.349-2.179c1.483,0.175,2.44,0.698,3.487,1.744
		c4.184-2.441,2.963-7.236,5.231-11.509c2.355-4.447,6.974-6.016,6.974-11.159c3.401-0.262,7.672-0.785,7.672-4.185
		c0-2.18-1.046-3.401-1.046-5.58c0-3.836,3.139-6.365,6.974-6.974c0-15.432,11.334-22.232,12.555-37.663l0.349-4.185
		c9.067-9.066,13.514-14.386,20.576-24.76c12.38-18.048,21.36-26.854,31.734-46.034c6.191-11.508,8.981-18.92,17.089-29.293
		c2.44-3.227,5.579-3.836,7.672-7.324c2.529-4.273,2.355-7.672,3.487-12.555c2.093-8.893,3.487-14.212,3.487-23.365
		c0-8.544-2.441-13.339-2.441-21.884v-11.334c0-4.359,1.047-7.847-1.744-11.072c-2.79-3.226-7.324-1.221-10.113-4.533
		c-2.005-2.441-0.435-5.231-1.046-8.37c-0.698-3.662-6.974-2.79-6.974-6.54v-7.149c0-5.143-1.83-11.072-6.975-11.072
		c-2.178,0-3.399,1.395-5.579,1.395c-3.923,0-4.708-4.796-5.232-8.719c-4.445,0-8.02-0.698-10.81-4.185l-12.904,5.929
		c-1.569-0.611-2.528-1.395-3.487-2.791c-1.395,2.791-2.353,3.923-4.185,6.278c-1.831,0.435-3.313,0.697-5.231,0.697
		c-3.662,0-5.755-1.046-9.417-1.046c-6.712,0-10.025,4.534-16.739,4.534c-7.149,0-10.985-3.488-18.134-3.488
		c-5.58,0-7.672,5.58-13.252,5.58s-6.626-7.672-12.206-7.672c-10.025,0-15.43,3.836-25.457,3.836c-4.969,0-6.189-6.278-11.159-6.278
		c-8.981,0-13.69,3.487-22.669,3.487c-4.098,0-8.02-2.878-8.02-6.974c0-4.185,2.528-6.103,3.836-10.113
		c-5.057-2.529-7.76-4.882-11.16-9.416c-12.555,2.092-22.058,0.435-31.037,9.416c-7.063,7.061-4.97,14.821-9.416,23.714
		c-5.057,10.113-11.683,13.862-15.344,24.411c-6.975,19.79-20.489,25.545-33.828,41.848c-3.924,4.882-4.533,8.893-8.021,14.299
		c-4.795,7.409-11.857,10.373-11.857,19.092v7.934c0,10.811-1.394,16.914-1.394,27.725c0,6.451,1.046,10.113,1.046,16.565
		c0,7.933-1.134,12.466-1.744,20.401v11.595c0,8.981-2.355,14.735-7.324,22.232c-8.195,1.307-12.38,4.969-17.785,11.16
		c-4.882,5.579-11.509,7.672-11.509,14.995c0,2.006,1.046,3.052,1.046,5.057c0,2.528-0.437,4.01-1.046,6.451
		c4.969,2.441,8.282,3.4,12.206,7.324v8.456c0,5.231-2.964,7.672-4.882,12.468c-5.319,12.816-11.857,24.761-25.807,24.761
		c-4.621,0-3.401-8.719-8.021-8.719c-6.625,0-10.113,3.836-16.739,3.836c-5.493,0-8.457-2.093-13.949-2.093
		c-2.964,0-4.708,0.698-7.672,0.698c-3.75,0-5.319-3.138-9.067-3.138c-2.18,0-2.703,2.79-4.882,2.79
		c-6.626,0-10.985-1.918-15.693-6.626c-8.806,5.231-15.519,4.794-24.411,9.765c-6.365,3.574-3.226,12.031-8.718,16.738
		c-2.18,1.83-4.448,1.656-6.278,3.837c-4.708,5.579-4.185,10.636-6.974,17.437c-6.801,16.565-11.16,25.457-14.647,43.244
		c-0.785,0.871-1.308,1.655-2.441,2.092c1.57,1.744,2.791,2.877,2.791,5.231c0,5.317-5.231,7.235-5.231,12.555
		c0,3.836,3.487,5.492,3.487,9.328v7.149c0,2.703,1.744,4.098,1.744,6.801v7.411l1.395-0.348
		c0.871,11.246,5.143,16.999,10.462,26.852c3.051,5.755-1.221,11.509,2.79,16.74c2.005,2.615,5.057,1.743,8.37,1.743
		c-1.394,3.402-2.44,5.668-2.44,9.417c0,6.54,6.363,10.811,12.903,10.811c1.655,0,2.528-1.047,4.185-1.047
		c6.538,0,8.63,5.58,14.298,8.719c9.241,5.056,14.472,8.283,24.761,10.811c1.655-3.4,2.615-6.975,6.277-6.975
		c5.754,0,8.893,2.268,14.298,4.186c9.502,3.401,15.344,4.447,24.761,8.02c8.543,3.226,12.815,8.37,21.97,8.37
		c3.399,0,3.574-4.271,6.277-6.278c1.221,1.221,2.528,1.745,4.271,1.745h7.149c4.359,0,6.889-1.395,11.247-1.395
		c2.616,0,3.139,2.789,5.232,4.185c8.107,5.494,13.164,10.811,23.016,10.811c3.051,0,2.876-5.231,5.928-5.231
		c4.621,0,6.801,2.354,11.159,3.836c10.637,3.75,16.914,5.928,26.504,11.857c6.887,4.273,8.979,11.857,17.088,11.857
		c7.15,0,9.417-6.886,12.555-13.251c3.139-6.364,7.324-9.067,9.067-16.042c3.225-13.165,11.421-18.221,15.693-31.037
		c7.672-7.673,9.94-14.036,19.181-19.181c3.923-2.179,7.235-2.528,9.765-6.278C387.431,533.983,387.605,531.368,390.309,528.926
		L390.309,528.926z"/>
</g>
</svg>
